<svg width="16" height="12" viewBox="0 0 16 12" fill="none" xmlns="http://www.w3.org/2000/svg">
<path d="M13.8381 3.24319H11.3951C11.3951 2.67734 11.0862 2.13465 10.5365 1.73453C9.98669 1.33441 9.24104 1.10962 8.46354 1.10962C7.68604 1.10962 6.94039 1.33441 6.39061 1.73453C5.84084 2.13465 5.53198 2.67734 5.53198 3.24319H3.089C2.82984 3.24319 2.58129 3.31812 2.39803 3.4515C2.21477 3.58487 2.11182 3.76577 2.11182 3.95439V9.28833C2.11182 9.47695 2.21477 9.65784 2.39803 9.79122C2.58129 9.92459 2.82984 9.99952 3.089 9.99952H13.8381C14.0972 9.99952 14.3458 9.92459 14.5291 9.79122C14.7123 9.65784 14.8153 9.47695 14.8153 9.28833V3.95439C14.8153 3.76577 14.7123 3.58487 14.5291 3.4515C14.3458 3.31812 14.0972 3.24319 13.8381 3.24319ZM8.46354 1.82081C8.98187 1.82081 9.47898 1.97067 9.84549 2.23742C10.212 2.50417 10.4179 2.86596 10.4179 3.24319H6.50916C6.50916 2.86596 6.71507 2.50417 7.08159 2.23742C7.4481 1.97067 7.94521 1.82081 8.46354 1.82081ZM13.8381 9.28833H3.089V3.95439H13.8381V9.28833Z" fill="#4E4949"/>
</svg>
