<svg width="15" height="13" viewBox="0 0 15 13" fill="none" xmlns="http://www.w3.org/2000/svg">
<path d="M12.5889 6.72184C12.8223 6.48007 12.9515 6.18385 12.9515 5.87566C12.9515 5.38667 12.6027 4.92383 12.0415 4.66573C11.897 4.59929 11.7325 4.56432 11.565 4.56445H8.23354L8.31689 3.22601C8.33634 2.90256 8.19047 2.59545 7.90706 2.36131C7.76798 2.2459 7.60018 2.15408 7.41404 2.09151C7.22789 2.02895 7.02736 1.99698 6.82483 1.99757C6.10242 1.99757 5.46336 2.37873 5.27164 2.92434L4.07827 6.31127H2.28196C2.03607 6.31127 1.8374 6.46701 1.8374 6.65977V10.6239C1.8374 10.8167 2.03607 10.9724 2.28196 10.9724H10.6356C10.7634 10.9724 10.8884 10.9528 11.0037 10.9136C11.665 10.6925 12.0915 10.1861 12.0915 9.62415C12.0915 9.48693 12.0665 9.35189 12.0165 9.2212C12.2499 8.97943 12.3791 8.68321 12.3791 8.37501C12.3791 8.23779 12.3541 8.10275 12.3041 7.97207C12.5375 7.7303 12.6667 7.43408 12.6667 7.12588C12.6639 6.98866 12.6389 6.85253 12.5889 6.72184ZM2.83767 10.1883V7.09539H3.96296V10.1883H2.83767ZM11.6789 6.34394L11.3746 6.55086L11.5678 6.82748C11.6314 6.9186 11.6644 7.02092 11.6636 7.12479C11.6636 7.30448 11.5636 7.47546 11.3913 7.59308L11.0871 7.8L11.2802 8.07661C11.3438 8.16773 11.3768 8.27005 11.376 8.37392C11.376 8.55362 11.276 8.7246 11.1037 8.84221L10.7995 9.04913L10.9926 9.32575C11.0562 9.41687 11.0892 9.51918 11.0885 9.62306C11.0885 9.867 10.9051 10.087 10.6217 10.1872H4.85209V7.06054L6.2344 3.13453C6.27004 3.0339 6.34656 2.94512 6.45235 2.88165C6.55814 2.81817 6.68744 2.78346 6.82066 2.78277C6.92625 2.78277 7.03044 2.80673 7.1138 2.85573C7.25133 2.93632 7.32496 3.0583 7.31663 3.18789L7.18326 5.34856H11.5511C11.7984 5.46726 11.9512 5.66765 11.9512 5.87566C11.9512 6.05535 11.8512 6.22524 11.6789 6.34394Z" fill="#4E4949"/>
</svg>
