<svg width="102" height="111" viewBox="0 0 102 111" fill="none" xmlns="http://www.w3.org/2000/svg">
<rect x="0.000244141" width="101.363" height="110.612" rx="20" fill="#E2F3FF"/>
<path fill-rule="evenodd" clip-rule="evenodd" d="M24.075 35.8827C24.3039 40.0489 25.4719 42.628 27.1824 44.2173C26.3472 44.8488 25.863 45.9088 26.0408 47.0549C26.9136 52.6818 29.0957 64.584 33.5688 78.0001C34.4579 80.6666 38.0087 80.6666 38.8977 78.0001C43.3707 64.584 45.5529 52.6818 46.4258 47.0549C46.6034 45.9088 46.1193 44.8488 45.2841 44.2172C46.9946 42.628 48.1625 40.0489 48.3914 35.8827C48.4384 35.0291 47.7476 34.3259 46.9055 34.3381C44.4228 34.3743 42.4509 34.5275 40.9126 35.0524C40.2776 33.352 38.9956 31.7465 37.0663 30.2808C36.5734 29.9064 35.893 29.9064 35.4001 30.2808C33.4865 31.7346 32.2095 33.3258 31.5694 35.0109C30.0755 34.5637 28.1193 34.3863 25.5649 34.3409C24.7228 34.3259 24.0281 35.0291 24.075 35.8827ZM39.1014 38.9371L38.0608 36.1499C37.7726 35.3783 37.2094 34.5106 36.2332 33.5953C35.2671 34.501 34.7057 35.3601 34.4149 36.1253L33.4032 38.7881L30.7067 37.9808C29.9112 37.7427 28.825 37.5837 27.2989 37.499C27.7523 40.484 28.8421 41.7456 29.8355 42.3979C31.256 43.3305 33.3258 43.6143 36.1876 43.6173H36.2788C39.1408 43.6143 41.2104 43.3305 42.6308 42.3979C43.6252 41.7449 44.7162 40.4816 45.1688 37.4905C43.6899 37.5691 42.6517 37.7255 41.8844 37.9873L39.1014 38.9371ZM29.0754 46.7136H43.3912C42.9543 49.5117 42.1958 53.8338 40.9973 59.0988H34.7081V62.195H40.2665C39.2132 66.5025 37.8868 71.302 36.2332 76.3297C35.6931 74.6871 35.1877 73.0686 34.7154 71.4839H36.233V68.3876H33.8215C32.3614 63.1642 31.269 58.399 30.4704 54.4543H34.7081V51.358H29.8702C29.5331 49.5371 29.2717 47.9714 29.0754 46.7136Z" fill="#0073C6"/>
<path d="M75.6163 61.0451C76.4307 61.2461 76.9259 62.0604 76.7222 62.864C75.8262 66.4012 73.121 69.0705 69.5365 69.9548C68.7221 70.1558 67.897 69.6672 67.6934 68.8635C67.4898 68.0599 67.985 67.2456 68.7994 67.0446C71.2947 66.4291 73.1493 64.5988 73.7732 62.1364C73.9768 61.3328 74.8019 60.8443 75.6163 61.0451Z" fill="#0073C6"/>
<path fill-rule="evenodd" clip-rule="evenodd" d="M66.6401 49.5908C64.9036 45.5563 65.2046 41.2703 68.2944 38.2005L66.0796 36C62.4315 39.6244 61.798 44.3672 63.0216 48.7247C55.8555 45.5035 48.3936 51.4273 48.3936 60.4401C48.3936 69.0335 56.1066 76 65.6209 76C75.1352 76 82.8482 69.0335 82.8482 60.4401C82.8482 50.7615 74.2432 44.6452 66.6401 49.5908ZM65.6209 54.3114L63.6642 52.7561C60.7545 50.4433 57.8877 50.5718 55.7168 51.9041C53.4215 53.3126 51.5259 56.3284 51.5259 60.4401C51.5259 67.0423 57.5488 72.888 65.6209 72.888C73.693 72.888 79.716 67.0423 79.716 60.4401C79.716 56.3284 77.8204 53.3126 75.5251 51.9041C73.3541 50.5718 70.4873 50.4433 67.5776 52.7561L65.6209 54.3114Z" fill="#0073C6"/>
</svg>
