<svg width="102" height="111" viewBox="0 0 102 111" fill="none" xmlns="http://www.w3.org/2000/svg">
<rect x="0.000244141" width="101.363" height="110.612" rx="20" fill="#FFE7FB"/>
<path d="M45.0404 52C46.7194 52 48.0805 50.6568 48.0805 49.0001C48.0805 47.3432 46.7194 46 45.0404 46C43.3613 46 42.0002 47.3432 42.0002 49.0001C42.0002 50.6568 43.3613 52 45.0404 52Z" fill="#900078"/>
<path fill-rule="evenodd" clip-rule="evenodd" d="M30.8319 64.6802V84H58.7705V73.5086H65.7793C66.2171 73.5086 66.6347 73.4237 67.0162 73.2695L63.1287 70.2864H55.5052V80.7778H34.0972V63.3808L33.1838 62.4449C30.5028 59.698 25.2656 53.2785 25.2656 45.293C25.2655 42.6661 26.2702 38.6449 29.2912 35.321C31.9584 32.3864 36.4313 29.7385 43.8829 29.2892V40.6495C39.7927 41.4049 36.6974 44.9461 36.6974 49.2006C36.6974 54.0056 40.6453 57.9008 45.5155 57.9008C47.3689 57.9008 49.0889 57.3366 50.5083 56.3728L73.4809 73.9702C73.4456 74.1719 73.4272 74.3794 73.4272 74.5909C73.4272 76.5934 75.0722 78.2168 77.1015 78.2168C79.1307 78.2168 80.7758 76.5934 80.7758 74.5909C80.7758 72.5885 79.1307 70.9653 77.1015 70.9653C76.4923 70.9653 75.9178 71.1114 75.412 71.3703L52.8252 54.0684C53.7776 52.6793 54.3338 51.0041 54.3338 49.2006C54.3338 44.9461 51.2383 41.4048 47.1482 40.6495V29.231C51.2997 29.3059 54.1766 29.8557 56.3529 30.6606C58.6585 31.5135 60.3673 32.7217 62.0896 34.2975L62.3212 34.5095C64.0102 36.0539 64.5137 36.5144 64.7986 37.2636C66.9251 42.8535 69.8838 50.6253 71.7101 55.4214H65.7793V60.075L69.0447 62.5807V58.6437H71.71C73.9908 58.6437 75.5705 56.3992 74.7682 54.2924C72.9423 49.4966 69.9824 41.7222 67.8556 36.1311C67.2858 34.6333 66.1823 33.6331 64.795 32.376C64.6368 32.2327 64.475 32.086 64.3098 31.9348C60.4512 28.4041 56.0558 26 46.1604 26C26.9073 26 22.0002 38.6878 22.0002 45.2932C22.0004 54.5846 28.0135 61.7924 30.8319 64.6802ZM45.5155 54.6786C48.5829 54.6786 51.0685 52.2253 51.0685 49.2006C51.0685 46.1759 48.5829 43.7228 45.5155 43.7228C42.4481 43.7228 39.9627 46.1759 39.9627 49.2006C39.9627 52.2253 42.4481 54.6786 45.5155 54.6786Z" fill="#900078"/>
</svg>
