<svg width="103" height="112" viewBox="0 0 103 112" fill="none" xmlns="http://www.w3.org/2000/svg">
<rect x="0.810669" y="0.845703" width="101.363" height="110.612" rx="20" fill="#FFF2F2"/>
<path fill-rule="evenodd" clip-rule="evenodd" d="M51.5002 46.375C58.0241 46.375 63.3127 41.0864 63.3127 34.5625C63.3127 28.0386 58.0241 22.75 51.5002 22.75C44.9764 22.75 39.6877 28.0386 39.6877 34.5625C39.6877 41.0864 44.9764 46.375 51.5002 46.375ZM51.5002 43C56.1601 43 59.9377 39.2224 59.9377 34.5625C59.9377 29.9026 56.1601 26.125 51.5002 26.125C46.8404 26.125 43.0627 29.9026 43.0627 34.5625C43.0627 39.2224 46.8404 43 51.5002 43Z" fill="#FF4E4E"/>
<path fill-rule="evenodd" clip-rule="evenodd" d="M56.1279 73.9323L47.3708 71.2772V65.78C47.3708 64.848 46.6153 64.0925 45.6833 64.0925C44.7514 64.0925 43.9958 64.848 43.9958 65.78V72.529C43.9958 73.2332 44.4328 73.8594 45.0835 74.1063L48.0426 75.2288L45.4615 77.0602C45.259 77.204 45.0921 77.3906 44.971 77.6036L47.365 80.7957C49.3224 83.4051 48.7937 87.1073 46.1841 89.0644C43.5747 91.0218 39.8727 90.4931 37.9154 87.8835L29.0567 76.0729C27.6889 74.2494 27.4926 71.8015 28.5523 69.7834L35.2457 57.0348C36.36 54.9125 38.4111 53.4408 40.7787 53.065L61.2035 49.8233C63.7051 49.4262 66.1813 50.6684 67.3587 52.9109L74.4457 66.4089C75.5054 68.427 75.309 70.8749 73.9413 72.6984L65.0826 84.509C63.1253 87.1186 59.4232 87.6473 56.8138 85.6899C54.2043 83.7328 53.6756 80.0307 55.6328 77.4212L57.7026 74.6616C57.5462 74.5189 57.3636 74.406 57.1642 74.3295L56.1279 73.9323ZM63.6992 72.8428L61.6327 75.0438L61.6333 75.0459L58.3328 79.4464C57.4939 80.5647 57.7205 82.1513 58.8388 82.9901C59.9571 83.829 61.5437 83.6023 62.3826 82.484L71.2413 70.6732C71.8275 69.8917 71.9117 68.8428 71.4576 67.9778L64.3706 54.4798C63.8659 53.5188 62.8048 52.9864 61.7327 53.1566L41.3077 56.3983C39.9925 56.6071 38.8529 57.4247 38.2338 58.6039L31.5403 71.3523C31.0862 72.2171 31.1704 73.2662 31.7567 74.0477L40.6154 85.8584C41.454 86.9768 43.0408 87.2033 44.1591 86.3646C45.2774 85.5257 45.504 83.9392 44.6652 82.8209L41.3251 78.3677L41.3273 78.3535L38.3403 74.391L40.6228 72.6704C40.6214 72.6233 40.6208 72.5762 40.6208 72.529V65.78C40.6208 62.9841 42.8874 60.7175 45.6833 60.7175C48.4793 60.7175 50.7458 62.9841 50.7458 65.78V68.7738L54.3862 69.8776C53.6277 68.6956 53.1877 67.29 53.1877 65.7813C53.1877 61.5874 56.5875 58.1876 60.7815 58.1876C64.9754 58.1876 68.3752 61.5874 68.3752 65.7813C68.3752 68.9552 66.4282 71.6742 63.6634 72.8091L63.6992 72.8428ZM56.5627 65.7813C56.5627 63.4514 58.4516 61.5626 60.7815 61.5626C63.1114 61.5626 65.0002 63.4514 65.0002 65.7813C65.0002 68.1113 63.1114 70.0001 60.7815 70.0001C58.4516 70.0001 56.5627 68.1113 56.5627 65.7813Z" fill="#FF4E4E"/>
</svg>
