<svg width="38" height="39" viewBox="0 0 38 39" fill="none" xmlns="http://www.w3.org/2000/svg">
<g clip-path="url(#clip0_181_1319)">
<path d="M10.8658 0C11.2149 0 11.5496 0.143812 11.7964 0.399799C12.0432 0.655786 12.1819 1.00298 12.1819 1.365V3.91755H26.314V1.38255C26.314 1.02053 26.4527 0.673336 26.6995 0.417349C26.9463 0.161362 27.281 0.01755 27.6301 0.01755C27.9791 0.01755 28.3138 0.161362 28.5606 0.417349C28.8074 0.673336 28.9461 1.02053 28.9461 1.38255V3.91755H34.0409C35.0378 3.91755 35.9939 4.32817 36.699 5.05914C37.4041 5.79011 37.8005 6.78159 37.801 7.8156V35.1019C37.8005 36.136 37.4041 37.1274 36.699 37.8584C35.9939 38.5894 35.0378 39 34.0409 39H3.9605C2.96359 39 2.00749 38.5894 1.3024 37.8584C0.597306 37.1274 0.200938 36.136 0.200439 35.1019L0.200439 7.8156C0.200938 6.78159 0.597306 5.79011 1.3024 5.05914C2.00749 4.32817 2.96359 3.91755 3.9605 3.91755H9.54982V1.36305C9.55032 1.00137 9.68919 0.654675 9.93594 0.39911C10.1827 0.143544 10.5171 -3.69064e-07 10.8658 0ZM2.83248 15.0969V35.1019C2.83248 35.2556 2.86166 35.4077 2.91834 35.5497C2.97503 35.6916 3.05812 35.8206 3.16287 35.9293C3.26761 36.0379 3.39196 36.1241 3.52882 36.1829C3.66568 36.2417 3.81236 36.272 3.9605 36.272H34.0409C34.1891 36.272 34.3358 36.2417 34.4726 36.1829C34.6095 36.1241 34.7338 36.0379 34.8386 35.9293C34.9433 35.8206 35.0264 35.6916 35.0831 35.5497C35.1398 35.4077 35.169 35.2556 35.169 35.1019V15.1242L2.83248 15.0969ZM12.7346 28.5071V31.7558H9.60058V28.5071H12.7346ZM20.5668 28.5071V31.7558H17.4347V28.5071H20.5668ZM28.4009 28.5071V31.7558H25.2669V28.5071H28.4009ZM12.7346 20.7519V24.0006H9.60058V20.7519H12.7346ZM20.5668 20.7519V24.0006H17.4347V20.7519H20.5668ZM28.4009 20.7519V24.0006H25.2669V20.7519H28.4009ZM9.54982 6.6456H3.9605C3.81236 6.6456 3.66568 6.67586 3.52882 6.73466C3.39196 6.79346 3.26761 6.87964 3.16287 6.98829C3.05812 7.09693 2.97503 7.22591 2.91834 7.36786C2.86166 7.50981 2.83248 7.66195 2.83248 7.8156V12.3689L35.169 12.3962V7.8156C35.169 7.66195 35.1398 7.50981 35.0831 7.36786C35.0264 7.22591 34.9433 7.09693 34.8386 6.98829C34.7338 6.87964 34.6095 6.79346 34.4726 6.73466C34.3358 6.67586 34.1891 6.6456 34.0409 6.6456H28.9461V8.45715C28.9461 8.81917 28.8074 9.16636 28.5606 9.42235C28.3138 9.67834 27.9791 9.82215 27.6301 9.82215C27.281 9.82215 26.9463 9.67834 26.6995 9.42235C26.4527 9.16636 26.314 8.81917 26.314 8.45715V6.6456H12.1819V8.4396C12.1819 8.80162 12.0432 9.14881 11.7964 9.4048C11.5496 9.66079 11.2149 9.8046 10.8658 9.8046C10.5168 9.8046 10.1821 9.66079 9.93527 9.4048C9.68847 9.14881 9.54982 8.80162 9.54982 8.4396V6.6456Z" fill="#777777"/>
</g>
<defs>
<clipPath id="clip0_181_1319">
<rect width="37.6006" height="39" fill="white" transform="translate(0.200439)"/>
</clipPath>
</defs>
</svg>
