<svg width="102" height="112" viewBox="0 0 102 112" fill="none" xmlns="http://www.w3.org/2000/svg">
<rect x="-0.000244141" y="0.612549" width="101.363" height="110.612" rx="20" fill="#F1E8FF"/>
<path fill-rule="evenodd" clip-rule="evenodd" d="M46.8332 34.8889C49.1651 34.8889 51.0556 33.1478 51.0556 31C51.0556 28.8522 49.1651 27.1111 46.8332 27.1111C44.5013 27.1111 42.6108 28.8522 42.6108 31C42.6108 33.1478 44.5013 34.8889 46.8332 34.8889ZM46.8332 38C51.0307 38 54.4335 34.866 54.4335 31C54.4335 27.134 51.0307 24 46.8332 24C42.6356 24 39.2329 27.134 39.2329 31C39.2329 34.866 42.6356 38 46.8332 38Z" fill="#6E00FA"/>
<path fill-rule="evenodd" clip-rule="evenodd" d="M68.6207 42.8333C72.3518 42.8333 75.3765 39.9977 75.3765 36.5C75.3765 33.0022 72.3518 30.1667 68.6207 30.1667C64.8896 30.1667 61.8649 33.0022 61.8649 36.5C61.8649 39.9977 64.8896 42.8333 68.6207 42.8333ZM68.6207 46C74.2174 46 78.7544 41.7467 78.7544 36.5C78.7544 31.2533 74.2174 27 68.6207 27C63.024 27 58.487 31.2533 58.487 36.5C58.487 41.7467 63.024 46 68.6207 46Z" fill="#6E00FA"/>
<path fill-rule="evenodd" clip-rule="evenodd" d="M68.2828 32C69.2156 32 69.9717 32.7326 69.9717 33.6363V36.4135L71.377 38.4558C71.8943 39.2077 71.6846 40.2237 70.9085 40.7251C70.1325 41.2263 69.0839 41.0231 68.5664 40.2712L66.5939 37.4045V33.6363C66.5939 32.7326 67.35 32 68.2828 32Z" fill="#6E00FA"/>
<path fill-rule="evenodd" clip-rule="evenodd" d="M39.2771 42.4862C39.7418 42.2973 40.6027 42 41.6933 42H45.0952C46.0664 42 46.8429 42.2606 47.0523 42.3309L47.066 42.3355C47.4067 42.4497 47.7221 42.5823 47.9823 42.7005C48.5134 42.9416 49.0946 43.2506 49.6892 43.6002C50.8899 44.3057 52.3564 45.3003 53.888 46.557C56.9115 49.0382 60.4937 52.7938 62.5899 57.6809C63.9221 60.7867 63.8278 63.7837 62.5885 66.3922C61.4292 68.8321 59.4665 70.5222 57.796 71.6224C52.6083 75.0391 52.3649 77.26 51.0452 83.4138C50.9479 85.962 48.702 88 45.9456 88C43.1274 88 40.8428 85.8696 40.8428 83.2414C40.8428 75.0999 40.8389 70.2557 40.4443 65.6746C38.2243 67.1837 35.1048 66.7826 33.4093 64.7445C32.9961 64.2478 31.8522 62.747 30.8307 61.3029C30.3133 60.5715 29.768 59.7714 29.3355 59.0636C29.1236 58.717 28.8896 58.3129 28.6935 57.9065C28.5959 57.7042 28.4727 57.4298 28.3657 57.115C28.2822 56.8694 28.0859 56.2573 28.0859 55.4828C28.0859 54.3477 28.5293 53.4651 28.6259 53.2727L28.6271 53.2705L28.6283 53.2681L28.6313 53.2621C28.7924 52.9361 28.9722 52.643 29.1149 52.4223C29.4089 51.9677 29.7739 51.472 30.1463 50.9928C30.9041 50.0175 31.8961 48.8499 32.9288 47.7264C33.9502 46.6152 35.1036 45.4464 36.1833 44.5156C36.7133 44.0589 37.3365 43.5626 37.995 43.1503C38.3255 42.9435 38.7623 42.6957 39.2771 42.4862ZM41.6933 45.1724C40.4431 45.1724 39.3552 46.1016 38.4923 46.8454C37.5476 47.6596 36.49 48.7266 35.5116 49.791C34.5297 50.8594 33.5965 51.9592 32.901 52.8543C32.4733 53.4047 32.0274 53.9695 31.7208 54.59C31.5821 54.8706 31.4877 55.1717 31.4877 55.4828C31.4877 56.2075 31.9189 56.884 32.2911 57.493C32.6699 58.1127 33.1686 58.8466 33.6704 59.556C34.6697 60.9687 35.7596 62.3943 36.0971 62.7999C36.6728 63.492 37.7414 63.6178 38.4837 63.0808C39.2258 62.5439 39.3607 61.5475 38.7849 60.8552C38.5233 60.5409 37.4871 59.1905 36.5101 57.8091C36.1743 57.3345 35.8576 56.8732 35.5885 56.4613L34.9995 55.5594L35.6644 54.7046C36.2968 53.8915 37.1673 52.8644 38.0947 51.8556C38.3034 51.6284 38.5126 51.4048 38.7203 51.1872L40.9958 48.8018L41.6598 51.9336C44.2313 64.0613 44.2447 68.0504 44.2447 83.2414C44.2447 84.1174 45.0062 84.8276 45.9456 84.8276C47.0023 84.8276 47.6466 84.0012 47.6466 83.0843C49.0349 76.6112 49.8493 72.9724 55.8335 69.031C57.2202 68.1179 58.6575 66.8341 59.4782 65.1069C60.3255 63.3239 60.4427 61.2169 59.4314 58.8592C57.5987 54.5866 54.4203 51.2197 51.6405 48.9385C50.2442 47.7927 48.9226 46.8993 47.8757 46.284C47.2555 45.9197 46.6097 45.5534 45.9162 45.3212C45.6527 45.2328 45.3765 45.1724 45.0952 45.1724H41.6933Z" fill="#6E00FA"/>
</svg>
