<svg width="60" height="610" viewBox="0 0 60 610" fill="none" xmlns="http://www.w3.org/2000/svg">
<path d="M-386.591 0.394742C-440.452 -1.33151 -472.316 35.6128 -496.572 83.7334C-540.833 171.537 -555.967 276.494 -541.418 365.852C-526.868 455.21 -474.047 517.336 -421.364 554.563C-341.508 610.991 -320.59 612.6 -242.5 607.018C-185.503 602.944 -154.808 595.565 -88.8058 561.844C-22.8039 528.123 81.4386 465.113 55.4221 374.546C34.8276 302.855 -107.879 282.313 -107.879 282.313C-107.879 282.313 -174.389 274.713 -214.359 243.749C-255.729 211.701 -281.937 128.037 -281.937 128.037C-281.937 128.037 -322.164 2.45965 -386.591 0.394742Z" fill="#08D3BB"/>
</svg>
