<svg width="519" height="398" viewBox="0 0 519 398" fill="none" xmlns="http://www.w3.org/2000/svg">
<path d="M137.058 0.603173C91.0216 -0.521941 63.7865 23.5571 43.0538 54.9204C5.22363 112.148 -7.71241 180.555 4.72358 238.795C17.1596 297.036 62.3072 337.527 107.336 361.79C175.591 398.569 193.471 399.617 260.216 395.979C308.933 393.324 335.169 388.514 391.582 366.536C447.996 344.558 537.095 303.49 514.858 244.462C497.255 197.736 375.28 184.348 375.28 184.348C375.28 184.348 318.432 179.394 284.269 159.213C248.909 138.325 226.508 83.7959 226.508 83.7959C226.508 83.7959 192.125 1.94901 137.058 0.603173Z" fill="#08D3BB"/>
</svg>
