<svg width="164" height="511" viewBox="0 0 164 511" fill="none" xmlns="http://www.w3.org/2000/svg">
<path d="M160.409 0.394742C106.548 -1.33151 74.6841 35.6128 50.4275 83.7334C6.16748 171.537 -8.96729 276.494 5.58241 365.852C20.1321 455.21 72.9533 517.336 125.636 554.563C205.492 610.991 226.41 612.6 304.5 607.018C361.497 602.944 392.192 595.565 458.194 561.844C524.196 528.123 628.439 465.113 602.422 374.546C581.828 302.855 439.121 282.313 439.121 282.313C439.121 282.313 372.611 274.713 332.641 243.749C291.271 211.701 265.063 128.037 265.063 128.037C265.063 128.037 224.836 2.45965 160.409 0.394742Z" fill="#08D3BB"/>
</svg>
