<svg width="42" height="42" viewBox="0 0 42 42" fill="none" xmlns="http://www.w3.org/2000/svg">
<path d="M29.3912 19.0178H12.1023C10.1926 19.0178 8.64447 20.5659 8.64447 22.4756V32.849C8.64447 34.7587 10.1926 36.3068 12.1023 36.3068H29.3912C31.3009 36.3068 32.849 34.7587 32.849 32.849V22.4756C32.849 20.5659 31.3009 19.0178 29.3912 19.0178Z" stroke="black" stroke-width="3.45779" stroke-linecap="round" stroke-linejoin="round"/>
<path d="M20.7467 29.3911C21.7016 29.3911 22.4756 28.6171 22.4756 27.6622C22.4756 26.7074 21.7016 25.9333 20.7467 25.9333C19.7919 25.9333 19.0178 26.7074 19.0178 27.6622C19.0178 28.6171 19.7919 29.3911 20.7467 29.3911Z" stroke="black" stroke-width="3.45779" stroke-linecap="round" stroke-linejoin="round"/>
<path d="M13.8312 19.0179V12.1023C13.8312 10.2682 14.5598 8.50921 15.8567 7.21229C17.1536 5.91537 18.9126 5.18677 20.7467 5.18677C22.5809 5.18677 24.3399 5.91537 25.6368 7.21229C26.9337 8.50921 27.6623 10.2682 27.6623 12.1023V19.0179" stroke="black" stroke-width="3.45779" stroke-linecap="round" stroke-linejoin="round"/>
</svg>
