<svg width="166" height="202" viewBox="0 0 166 202" fill="none" xmlns="http://www.w3.org/2000/svg">
<rect x="0.157227" width="165.064" height="202" rx="20" fill="#D3E9F3"/>
<path d="M85.4992 105.771C105.197 105.771 121.166 90.0592 121.166 70.6783C121.166 51.2973 105.197 35.5859 85.4992 35.5859C65.801 35.5859 49.8325 51.2973 49.8325 70.6783C49.8325 90.0592 65.801 105.771 85.4992 105.771Z" stroke="white" stroke-width="2.91274" stroke-linecap="round" stroke-linejoin="round"/>
<path d="M32 193.501V175.954C32 166.647 35.7577 157.721 42.4465 151.14C49.1353 144.559 58.2073 140.862 67.6667 140.862H103.333C112.793 140.862 121.865 144.559 128.553 151.14C135.242 157.721 139 166.647 139 175.954V193.501" stroke="white" stroke-width="2.91274" stroke-linecap="round" stroke-linejoin="round"/>
</svg>
