<svg width="26" height="28" viewBox="0 0 26 28" fill="none" xmlns="http://www.w3.org/2000/svg">
<path d="M11.4538 19.1767L6.63037 14.0503L8.2378 12.3423L11.4538 15.7583L17.8835 8.92505L19.4921 10.6343L11.4538 19.1743V19.1767Z" fill="black"/>
<path fill-rule="evenodd" clip-rule="evenodd" d="M0.946289 13.9656C0.946289 6.62748 6.54502 0.678467 13.4511 0.678467C20.3571 0.678467 25.9559 6.62748 25.9559 13.9656C25.9559 21.3037 20.3571 27.2527 13.4511 27.2527C6.54502 27.2527 0.946289 21.3037 0.946289 13.9656ZM13.4511 24.8369C12.1075 24.8369 10.7771 24.5557 9.53577 24.0094C8.29446 23.463 7.16658 22.6623 6.21653 21.6528C5.26648 20.6433 4.51285 19.4448 3.99869 18.1259C3.48452 16.8069 3.21989 15.3932 3.21989 13.9656C3.21989 12.538 3.48452 11.1243 3.99869 9.80534C4.51285 8.48637 5.26648 7.28793 6.21653 6.27843C7.16658 5.26894 8.29446 4.46817 9.53577 3.92184C10.7771 3.3755 12.1075 3.09431 13.4511 3.09431C16.1645 3.09431 18.7669 4.23967 20.6856 6.27843C22.6043 8.3172 23.6823 11.0824 23.6823 13.9656C23.6823 16.8488 22.6043 19.614 20.6856 21.6528C18.7669 23.6915 16.1645 24.8369 13.4511 24.8369Z" fill="black"/>
</svg>
