<svg width="95" height="418" viewBox="0 0 95 418" fill="none" xmlns="http://www.w3.org/2000/svg">
<path d="M88.7616 0.478248C54.8525 -2.99065 36.4139 20.6373 23.232 52.15C-0.82065 109.65 -5.84391 179.997 7.11407 241.061C20.0721 302.124 55.9087 346.404 90.5942 373.835C143.171 415.416 156.381 417.398 205.198 416.958C240.83 416.638 259.797 412.958 299.819 392.969C339.84 372.98 402.633 334.813 382.42 272.442C366.419 223.069 275.894 203.078 275.894 203.078C275.894 203.078 233.787 195.095 207.355 172.443C179.998 148.998 159.959 91.2876 159.959 91.2876C159.959 91.2876 129.323 4.62767 88.7616 0.478248Z" fill="#08D3BB"/>
</svg>
